<?xml version="1.0" encoding="UTF-8" standalone="no"?>
<svg
   xmlns:dc="http://purl.org/dc/elements/1.1/"
   xmlns:cc="http://creativecommons.org/ns#"
   xmlns:rdf="http://www.w3.org/1999/02/22-rdf-syntax-ns#"
   xmlns:svg="http://www.w3.org/2000/svg"
   xmlns="http://www.w3.org/2000/svg"
   viewBox="0 0 1108.5312 167.64999"
   height="167.64999"
   width="1108.5312"
   xml:space="preserve"
   version="1.1"
   id="svg2"><metadata
     id="metadata8"><rdf:RDF><cc:Work
         rdf:about=""><dc:format>image/svg+xml</dc:format><dc:type
           rdf:resource="http://purl.org/dc/dcmitype/StillImage" /></cc:Work></rdf:RDF></metadata><defs
     id="defs6"><clipPath
       id="clipPath16"
       clipPathUnits="userSpaceOnUse"><path
         id="path18"
         d="m 0,134.12 886.825,0 L 886.825,0 0,0 0,134.12 Z" /></clipPath></defs><g
     transform="matrix(1.25,0,0,-1.25,0,167.65)"
     id="g10"><g
       id="g12"><g
         clip-path="url(#clipPath16)"
         id="g14"><g
           transform="translate(60.8136,82.5063)"
           id="g20"><path
             id="path22"
             style="fill:#383737;fill-opacity:1;fill-rule:nonzero;stroke:none"
             d="m 0,0 -12.009,0 0,-42.763 -16.009,0 0,42.763 -9.796,0 0,10.747 9.796,0 0,6.74 c 0,10.738 7.583,14.114 19.804,14.114 3.683,0 7.159,-0.32 8.318,-0.631 l 0,-10.747 c -1.371,0.316 -4.003,0.631 -6.001,0.631 -6.004,0 -6.112,-4.422 -6.112,-6.108 l 0,-3.999 L 0,10.747 0,0 Z" /></g><g
           transform="translate(102.1871,65.232)"
           id="g24"><path
             id="path26"
             style="fill:#383737;fill-opacity:1;fill-rule:nonzero;stroke:none"
             d="m 0,0 c -4.742,-2.213 -4.423,-1.686 -10.535,-2.845 -3.372,-0.527 -9.373,-1.686 -9.373,-7.69 0,-5.054 5.162,-6.213 8.214,-6.213 3.9,0 11.694,2.633 11.694,13.376 L 0,0 Z m -33.81,10.743 c 0.843,18.537 19.272,19.276 25.173,19.276 24.118,0 24.541,-13.799 24.541,-20.011 L 15.589,-14.43 c -0.108,-5.901 0.104,-9.373 3.16,-10.112 l 0,-0.947 -16.855,0 -1.367,5.266 -0.315,0 c -4.215,-5.374 -11.27,-7.267 -17.906,-7.267 -17.067,0 -18.645,10.954 -18.645,15.481 0,12.221 10.219,15.065 19.907,16.751 11.798,1.682 16.008,0.843 16.328,6.001 l 0,1.478 c -0.32,7.055 -6.847,7.055 -8.637,7.055 -2.953,0 -9.796,-0.635 -9.796,-8.533 l -15.273,0 z" /></g><g
           transform="translate(182.5178,59.9656)"
           id="g28"><path
             id="path30"
             style="fill:#383737;fill-opacity:1;fill-rule:nonzero;stroke:none"
             d="m 0,0 c -0.527,-8.322 -6.005,-22.225 -26.435,-22.225 -17.487,0 -28.545,10.004 -28.545,28.649 0,12.64 5.689,28.861 29.491,28.861 18.222,0 24.119,-11.271 24.962,-21.067 l -15.373,0 c -1.163,8.638 -5.586,10.324 -10.22,10.324 -3.476,0 -12.217,-0.951 -12.217,-16.959 0,-17.798 8.741,-19.065 12.01,-19.065 8.421,0 10.526,7.794 10.526,11.482 L 0,0 Z" /></g><g
           transform="translate(187.6459,93.2513)"
           id="g32"><path
             id="path34"
             style="fill:#383737;fill-opacity:1;fill-rule:nonzero;stroke:none"
             d="m 0,0 9.688,0 0,16.008 16.012,0 0,-16.008 11.378,0 0,-10.747 -11.378,0 0,-25.7 0,-2.525 c 0,-2.425 1.371,-4.742 6.321,-4.742 2.421,0 4.215,0.631 5.057,0.951 l 0,-10.747 c -4.111,-0.843 -9.588,-1.475 -13.064,-1.475 -10.639,0 -14.326,4.635 -14.326,15.589 l 0,28.649 -9.688,0 L 0,0 Z" /></g><g
           transform="translate(271.6812,66.6007)"
           id="g36"><path
             id="path38"
             style="fill:#383737;fill-opacity:1;fill-rule:nonzero;stroke:none"
             d="m 0,0 c 0,17.063 -8.745,17.906 -12.641,17.906 -3.583,0 -12.636,-0.843 -12.636,-17.906 0,-6.848 1.263,-18.118 12.636,-18.118 C -1.159,-18.118 0,-6.74 0,0 m -41.92,0 c 0,21.066 14.43,28.649 29.279,28.649 16.748,0 29.285,-9.165 29.285,-28.649 0,-19.696 -12.645,-28.861 -29.285,-28.861 -16.639,0 -29.279,9.165 -29.279,28.861" /></g><g
           transform="translate(335.019,84.5062)"
           id="g40"><path
             id="path42"
             style="fill:#383737;fill-opacity:1;fill-rule:nonzero;stroke:none"
             d="m 0,0 c -0.739,0.104 -1.37,0.104 -2.105,0.104 l -2.106,0 c -9.165,0 -16.54,-4.103 -16.54,-22.96 l 0,-21.909 -16.008,0 0,53.51 16.008,0 0,-8.745 c 4.215,8.745 11.798,10.743 18.857,10.743 L 0,10.743 0,0 Z" /></g><g
           transform="translate(349.0121,31.0014)"
           id="g44"><path
             id="path46"
             style="fill:#383737;fill-opacity:1;fill-rule:nonzero;stroke:none"
             d="m 0,0 c 1.582,-0.739 3.156,-0.739 5.162,-0.739 5.161,0 6.947,3.895 7.79,7.479 l 0.739,2.632 -23.279,52.88 19.276,0 12.429,-34.87 9.584,34.87 17.067,0 L 30.123,5.897 C 27.91,-1.267 25.173,-11.694 11.27,-11.694 6.947,-11.694 2.845,-11.27 0,-10.743 L 0,0 Z" /></g><g
           transform="translate(419.3844,93.2513)"
           id="g48"><path
             id="path50"
             style="fill:#383737;fill-opacity:1;fill-rule:nonzero;stroke:none"
             d="m 0,0 0,-7.794 c 5.901,8.425 11.905,9.796 16.436,9.796 10.107,0 14.007,-6.217 15.693,-10.747 7.055,10.427 14.745,10.747 18.325,10.747 17.275,0 18.222,-15.801 18.222,-22.964 l 0,-32.548 -16.009,0 0,31.493 c 0,5.585 -0.843,13.272 -8.006,13.272 -4.53,0 -9.796,-3.368 -9.796,-14.007 l 0,-30.758 -16.012,0 0,31.493 c 0,8.006 -1.682,13.272 -8.11,13.272 -4.103,0 -9.688,-3.476 -9.688,-14.007 l 0,-30.758 -16.009,0 0,53.51 L 0,0 Z" /></g><g
           transform="translate(534.7236,65.232)"
           id="g52"><path
             id="path54"
             style="fill:#383737;fill-opacity:1;fill-rule:nonzero;stroke:none"
             d="m 0,0 c -4.742,-2.213 -4.423,-1.686 -10.535,-2.845 -3.372,-0.527 -9.373,-1.686 -9.373,-7.69 0,-5.054 5.162,-6.213 8.214,-6.213 3.9,0 11.694,2.633 11.694,13.376 L 0,0 Z m -33.811,10.743 c 0.843,18.537 19.273,19.276 25.174,19.276 24.118,0 24.541,-13.799 24.541,-20.011 L 15.589,-14.43 c -0.108,-5.901 0.104,-9.373 3.16,-10.112 l 0,-0.947 -16.855,0 -1.367,5.266 -0.315,0 c -4.215,-5.374 -11.27,-7.267 -17.906,-7.267 -17.067,0 -18.645,10.954 -18.645,15.481 0,12.221 10.219,15.065 19.907,16.751 11.798,1.682 16.008,0.843 16.328,6.001 l 0,1.478 c -0.32,7.055 -6.848,7.055 -8.637,7.055 -2.953,0 -9.796,-0.635 -9.796,-8.533 l -15.274,0 z" /></g><g
           transform="translate(599.8861,84.5062)"
           id="g56"><path
             id="path58"
             style="fill:#383737;fill-opacity:1;fill-rule:nonzero;stroke:none"
             d="m 0,0 c -0.739,0.104 -1.37,0.104 -2.105,0.104 l -2.106,0 c -9.165,0 -16.54,-4.103 -16.54,-22.96 l 0,-21.909 -16.008,0 0,53.51 16.008,0 0,-8.745 c 4.215,8.745 11.798,10.743 18.857,10.743 L 0,10.743 0,0 Z" /></g><g
           transform="translate(641.5479,93.2513)"
           id="g60"><path
             id="path62"
             style="fill:#383737;fill-opacity:1;fill-rule:nonzero;stroke:none"
             d="m 0,0 19.272,0 -21.17,-21.066 23.068,-32.444 -19.065,0 -14.957,22.224 -5.478,-5.581 0,-16.643 -16.012,0 0,73.733 16.012,0 0,-40.554 L 0,0 Z" /></g><g
           transform="translate(703.973,71.5534)"
           id="g64"><path
             id="path66"
             style="fill:#383737;fill-opacity:1;fill-rule:nonzero;stroke:none"
             d="M 0,0 C -0.316,11.478 -7.371,12.952 -11.27,12.952 -20.751,12.952 -24.123,5.473 -24.434,0 L 0,0 Z m 15.481,-16.328 c -4.211,-15.165 -18.01,-17.483 -27.806,-17.483 -7.055,0 -28.753,1.475 -28.753,28.857 0,18.437 12.533,28.653 30.02,28.653 26.227,0 27.17,-23.172 27.594,-29.704 l 0.108,-2.952 -41.078,0 c 0,-5.162 2.525,-14.115 12.844,-14.115 4.638,0 9.485,2.006 10.851,6.744 l 16.22,0 z" /></g><g
           transform="translate(725.2365,93.2513)"
           id="g68"><path
             id="path70"
             style="fill:#383737;fill-opacity:1;fill-rule:nonzero;stroke:none"
             d="m 0,0 9.688,0 0,16.008 16.012,0 0,-16.008 11.378,0 0,-10.747 -11.378,0 0,-25.7 0,-2.525 c 0,-2.425 1.371,-4.742 6.321,-4.742 2.421,0 4.214,0.631 5.057,0.951 l 0,-10.747 c -4.111,-0.843 -9.588,-1.475 -13.064,-1.475 -10.639,0 -14.326,4.635 -14.326,15.589 l 0,28.649 -9.688,0 L 0,0 Z" /></g><g
           transform="translate(809.3161,93.2811)"
           id="g72"><path
             id="path74"
             style="fill:#383737;fill-opacity:1;fill-rule:nonzero;stroke:none"
             d="m 0,0 -19.015,0 c -0.693,0 -1.258,0.565 -1.258,1.258 l 0,19.015 c 0,0.693 0.565,1.258 1.258,1.258 l 19.015,0 c 0.698,0 1.258,-0.565 1.258,-1.258 l 0,-19.015 C 1.258,0.565 0.698,0 0,0" /></g><g
           transform="translate(835.9417,93.2811)"
           id="g76"><path
             id="path78"
             style="fill:#383737;fill-opacity:1;fill-rule:nonzero;stroke:none"
             d="m 0,0 -19.015,0 c -0.693,0 -1.258,0.565 -1.258,1.258 l 0,19.015 c 0,0.693 0.565,1.258 1.258,1.258 l 19.015,0 c 0.693,0 1.258,-0.565 1.258,-1.258 l 0,-19.015 C 1.258,0.565 0.693,0 0,0" /></g><g
           transform="translate(862.5673,93.2811)"
           id="g80"><path
             id="path82"
             style="fill:#383737;fill-opacity:1;fill-rule:nonzero;stroke:none"
             d="m 0,0 -19.015,0 c -0.693,0 -1.258,0.565 -1.258,1.258 l 0,19.015 c 0,0.693 0.565,1.258 1.258,1.258 l 19.015,0 c 0.693,0 1.258,-0.565 1.258,-1.258 l 0,-19.015 C 1.258,0.565 0.693,0 0,0" /></g><g
           transform="translate(809.3161,66.5115)"
           id="g84"><path
             id="path86"
             style="fill:#383737;fill-opacity:1;fill-rule:nonzero;stroke:none"
             d="m 0,0 -19.015,0 c -0.693,0 -1.258,0.565 -1.258,1.258 l 0,19.015 c 0,0.693 0.565,1.258 1.258,1.258 l 19.015,0 c 0.698,0 1.258,-0.565 1.258,-1.258 l 0,-19.015 C 1.258,0.565 0.698,0 0,0" /></g><g
           transform="translate(835.9417,66.5115)"
           id="g88"><path
             id="path90"
             style="fill:#383737;fill-opacity:1;fill-rule:nonzero;stroke:none"
             d="m 0,0 -19.015,0 c -0.693,0 -1.258,0.565 -1.258,1.258 l 0,19.015 c 0,0.693 0.565,1.258 1.258,1.258 l 19.015,0 c 0.693,0 1.258,-0.565 1.258,-1.258 l 0,-19.015 C 1.258,0.565 0.693,0 0,0" /></g><g
           transform="translate(862.5673,66.5115)"
           id="g92"><path
             id="path94"
             style="fill:#383737;fill-opacity:1;fill-rule:nonzero;stroke:none"
             d="m 0,0 -19.015,0 c -0.693,0 -1.258,0.565 -1.258,1.258 l 0,19.015 c 0,0.693 0.565,1.258 1.258,1.258 l 19.015,0 c 0.693,0 1.258,-0.565 1.258,-1.258 l 0,-19.015 C 1.258,0.565 0.693,0 0,0" /></g><g
           transform="translate(809.3161,39.7412)"
           id="g96"><path
             id="path98"
             style="fill:#383737;fill-opacity:1;fill-rule:nonzero;stroke:none"
             d="m 0,0 -19.015,0 c -0.693,0 -1.258,0.565 -1.258,1.258 l 0,19.015 c 0,0.693 0.565,1.258 1.258,1.258 l 19.015,0 c 0.698,0 1.258,-0.565 1.258,-1.258 l 0,-19.015 C 1.258,0.565 0.698,0 0,0" /></g><g
           transform="translate(835.9417,39.7412)"
           id="g100"><path
             id="path102"
             style="fill:#383737;fill-opacity:1;fill-rule:nonzero;stroke:none"
             d="m 0,0 -19.015,0 c -0.693,0 -1.258,0.565 -1.258,1.258 l 0,19.015 c 0,0.693 0.565,1.258 1.258,1.258 l 19.015,0 c 0.693,0 1.258,-0.565 1.258,-1.258 l 0,-19.015 C 1.258,0.565 0.693,0 0,0" /></g><g
           transform="translate(862.5673,39.7412)"
           id="g104"><path
             id="path106"
             style="
              outline-color: #383737;
              outline-style: solid;
              outline-width: 2px;
              outline-offset: -2px;
              stroke-linecap: round;
              fill:#FFF200;"
             d="m 0,0 -19.015,0 c -0.693,0 -1.258,0.565 -1.258,1.258 l 0,19.015 c 0,0.693 0.565,1.258 1.258,1.258 l 19.015,0 c 0.693,0 1.258,-0.565 1.258,-1.258 l 0,-19.015 C 1.258,0.565 0.693,0 0,0" /></g></g></g></g></svg>